<svg width="200.000000" height="200.000000" viewBox="0 0 200 200" fill="none" xmlns="http://www.w3.org/2000/svg" xmlns:xlink="http://www.w3.org/1999/xlink">
	<desc>
			Created with Pixso.
	</desc>
	<defs/>
	<rect id="矩形 47" width="200.000000" height="200.000000" fill="#FFFFFF" fill-opacity="1.000000"/>
	<path id="减去顶层" d="M154.402 74.6846C144.846 54.209 124.064 40 100 40C66.8926 40 40 66.8926 40 100C40 109.26 42.1035 118.034 45.8594 125.869C51.1738 121.381 57.9834 116.531 65.9287 111.601C63.3672 104.099 63.252 95.707 66.1797 87.6895C68.9707 80.0059 74.376 73.2246 82.0049 68.8301C89.082 64.7383 97.5811 63.0186 106.251 64.5557C114.303 65.9697 121.919 70.1152 127.571 76.8652C128.705 78.2148 129.742 79.6494 130.671 81.1562C139.442 78.1982 147.49 76.0117 154.402 74.6846ZM159.99 101.088C151.985 107.013 141.834 113.342 130.246 119.521C129.44 120.765 128.549 121.972 127.57 123.136C122.32 129.401 114.922 133.924 106.249 135.445C102.651 136.082 98.9473 136.176 95.2715 135.691C82.9404 140.559 71.5 144.169 61.8887 146.324C72.2568 154.866 85.5352 160 100 160C132.743 160 159.409 133.694 159.99 101.088Z" clip-rule="evenodd" fill="#1A1A1A" fill-opacity="1.000000" fill-rule="evenodd"/>
	<path id="减去顶层" d="M111.994 70.499C109.232 70.499 106.994 72.7373 106.994 75.499C106.994 75.6914 107.005 75.8809 107.026 76.0674C106.982 76.1064 106.939 76.1455 106.896 76.1846C106.462 76.5791 106.048 76.9951 105.653 77.4316Q105.146 77.9941 104.689 78.5947L104.689 78.5947L104.689 78.5947L104.688 78.5957Q104.093 79.3789 103.583 80.2285C103.308 80.6895 103.053 81.1592 102.819 81.6406C102.551 82.1953 102.311 82.7627 102.099 83.3447C101.887 83.9268 101.706 84.5166 101.556 85.1143C101.425 85.6328 101.317 86.1562 101.233 86.6865C101.05 87.8389 100.979 88.9971 101.021 90.1602C101.054 91.0625 101.154 91.9551 101.321 92.8398C102.588 92.2637 103.849 91.6982 105.104 91.1445C105.061 90.7715 105.032 90.3945 105.019 90.0146C104.985 89.1113 105.041 88.2109 105.184 87.3154C105.248 86.9111 105.329 86.5117 105.428 86.1172C105.546 85.6426 105.689 85.1748 105.857 84.7129C106.025 84.251 106.217 83.8008 106.431 83.3613C106.609 82.9951 106.804 82.6367 107.014 82.2861C107.287 81.8311 107.584 81.3945 107.904 80.9756C108.132 80.6787 108.371 80.3906 108.623 80.1123C108.784 79.9336 108.949 79.7588 109.119 79.5898C109.932 80.1631 110.924 80.499 111.994 80.499C114.756 80.499 116.994 78.2607 116.994 75.499C116.994 72.7373 114.756 70.499 111.994 70.499ZM96.6855 94.9902C95.4258 95.5859 94.1787 96.1846 92.9434 96.7871C92.6904 96.5205 92.4258 96.2627 92.1504 96.0137C91.4795 95.4072 90.7549 94.8711 89.9766 94.4043C89.626 94.1943 89.2676 94 88.9014 93.8213C88.4619 93.6074 88.0117 93.416 87.5498 93.248C87.0879 93.0801 86.6201 92.9365 86.1455 92.8184C85.751 92.7197 85.3516 92.6387 84.9473 92.5742C84.4238 92.4902 83.8975 92.4375 83.3711 92.4141C82.9971 92.3975 82.623 92.3955 82.248 92.4092Q81.6152 92.4316 80.9941 92.5107C80.9883 95.2666 78.752 97.499 75.9941 97.499C73.2324 97.499 70.9941 95.2607 70.9941 92.499C70.9941 89.7373 73.2324 87.499 75.9941 87.499C77.2559 87.499 78.4092 87.9668 79.2891 88.7383C79.6406 88.6689 79.9941 88.6094 80.3496 88.5615C80.9297 88.4834 81.5146 88.4326 82.1025 88.4121C82.6074 88.3936 83.1113 88.3965 83.6143 88.4209C84.2695 88.4521 84.9238 88.5195 85.5762 88.624C86.1064 88.708 86.6309 88.8154 87.1484 88.9463C87.7461 89.0967 88.3359 89.2773 88.918 89.4893C89.5 89.7012 90.0684 89.9414 90.6221 90.21C91.1035 90.4434 91.5742 90.6982 92.0342 90.9736Q92.8838 91.4834 93.668 92.0801Q94.2686 92.5371 94.8311 93.0439C95.499 93.6475 96.1172 94.2959 96.6855 94.9902Z" clip-rule="evenodd" fill="#1A1A1A" fill-opacity="1.000000" fill-rule="evenodd"/>
	<path id="矢量 18" d="M178.685 82.9033C182.986 92.1299 153.984 114.778 113.978 133.434C73.9707 152.089 37.9775 159.749 33.6758 150.522C29.373 141.297 58.377 118.648 98.3838 99.9932C138.391 81.3379 174.382 73.6777 178.685 82.9033Z" fill="#BB2C2C" fill-opacity="1.000000" fill-rule="evenodd"/>
</svg>
