<svg width="200.000000" height="200.000000" viewBox="0 0 625 200" fill="none" xmlns="http://www.w3.org/2000/svg" xmlns:xlink="http://www.w3.org/1999/xlink">
	<desc>
			Created with Pixso.
	</desc>
	<defs/>
	<rect id="Vizing-白底" width="625.000000" height="200.000000" fill="#FFFFFF" fill-opacity="0"/>
	<path id="减去顶层" d="M65.9072 149.361C75.5928 156.068 87.3418 159.999 100 159.999C131.327 159.999 157.09 135.921 159.77 105.283C148.225 113.787 132.286 123.109 114.052 131.612C96.4277 139.83 79.5967 145.913 65.9072 149.361Z" clip-rule="evenodd" fill="#1A1A1A" fill-opacity="1.000000" fill-rule="evenodd"/>
	<path id="减去顶层" d="M154.404 74.6875C149.383 75.6523 143.762 77.0713 137.701 78.9092C136.37 76.5391 134.823 74.3066 133.086 72.2383C126.303 64.1387 117.163 59.1641 107.501 57.4668C97.0977 55.6221 86.8984 57.6855 78.4062 62.5957C69.251 67.8701 62.7646 76.0068 59.415 85.2275C55.792 95.1523 56.0537 105.555 59.415 114.771C59.5156 115.05 59.6191 115.327 59.7256 115.603C54.4043 119.149 49.7373 122.612 45.8662 125.884C42.1064 118.045 40 109.266 40 100C40 66.8926 66.8926 40 100 40C124.065 40 144.848 54.21 154.404 74.6875Z" clip-rule="evenodd" fill="#1A1A1A" fill-opacity="1.000000" fill-rule="evenodd"/>
	<path id="减去顶层" d="M112.058 71.0254C109.849 71.0254 108.058 72.8164 108.058 75.0254C108.058 76.7324 109.127 78.1895 110.632 78.7637C110.705 80.0791 110.623 81.3848 110.396 82.6582C109.908 85.4287 108.773 87.9238 107.174 90.0156C108.741 89.335 110.3 88.6709 111.847 88.0264C112.561 86.4648 113.061 84.8359 113.351 83.1807C113.617 81.6719 113.706 80.1719 113.633 78.7031C115.059 78.0918 116.058 76.6748 116.058 75.0254C116.058 72.8164 114.267 71.0254 112.058 71.0254ZM86.0811 100.037C87.5723 99.2646 89.0859 98.4961 90.6201 97.7314C88.251 97.6299 85.9844 97.0332 83.9355 96.0332C82.4111 95.293 81.0479 94.3535 79.8613 93.2627C79.9863 92.875 80.0537 92.4619 80.0537 92.0332C80.0537 89.8242 78.2627 88.0332 76.0537 88.0332C73.8447 88.0332 72.0537 89.8242 72.0537 92.0332C72.0537 94.2422 73.8447 96.0332 76.0537 96.0332C76.7334 96.0332 77.373 95.8643 77.9326 95.5654C79.3525 96.8525 80.9346 97.9121 82.6211 98.7295C83.752 99.2803 84.9102 99.7148 86.0811 100.037Z" clip-rule="evenodd" fill="#1A1A1A" fill-opacity="1.000000" fill-rule="evenodd"/>
	<path id="矢量 15" d="M32.4238 145.536C28.1172 136.303 57.0879 113.68 97.1318 95.0068C137.175 76.335 173.126 68.6836 177.433 77.917C181.738 87.1514 152.769 109.775 112.726 128.447C72.6816 147.12 36.7295 154.771 32.4238 145.536Z" fill="#BB2C2C" fill-opacity="1.000000" fill-rule="evenodd"/>
	<path id="Vizing" d="M286.602 71.002C288.819 72.999 291.73 73.998 295.336 73.998Q299.808 73.998 302.855 71.915L302.855 71.915Q303.494 71.4785 304.07 70.9512C306.288 68.9033 307.396 66.3135 307.396 63.1816C307.396 60.2021 306.288 57.7646 304.07 55.8691C301.853 53.9561 298.941 53 295.336 53C291.73 53 288.819 54.0068 286.602 56.0215C284.384 58.0186 283.275 60.5156 283.275 63.5117C283.275 66.4912 284.384 68.9873 286.602 71.002ZM384.978 71.002C387.195 72.999 390.106 73.998 393.712 73.998C397.317 73.998 400.229 72.9824 402.446 70.9512C404.664 68.9033 405.772 66.3135 405.772 63.1816C405.772 60.2021 404.664 57.7646 402.446 55.8691C400.229 53.9561 397.317 53 393.712 53C390.106 53 387.195 54.0068 384.978 56.0215C382.76 58.0186 381.651 60.5156 381.651 63.5117C381.651 66.4912 382.76 68.9873 384.978 71.002ZM276.57 63.8164L245.365 136.611L225.078 136.611L194 63.8164L216.242 63.8164L235.996 111.246L256.182 63.8164L276.57 63.8164ZM457.102 79.3047C464.093 79.3047 469.721 81.3867 473.986 85.5508Q474.102 85.6631 474.214 85.7764Q480.385 92.0225 480.385 104.365L480.385 136.611L460.631 136.611L460.631 107.59C460.631 99.9053 457.542 96.0625 451.363 96.0625C447.979 96.0625 445.262 97.1709 443.213 99.3887Q440.141 102.715 440.141 109.367L440.141 136.611L420.387 136.611L420.387 80.2441L439.201 80.2441L439.201 86.3887C441.419 84.0869 444.051 82.335 447.098 81.1328C450.162 79.9141 453.496 79.3047 457.102 79.3047ZM558.235 126.303L558.235 80.2441L539.396 80.2441L539.396 87.0996Q538.049 85.2285 536.33 83.8066Q530.89 79.3047 521.724 79.3047C516.73 79.3047 512.118 80.4307 507.886 82.6816C503.671 84.9326 500.312 88.124 497.806 92.2539Q497.206 93.25 496.702 94.293Q494.073 99.7354 494.073 106.447C494.073 111.864 495.317 116.638 497.806 120.768C500.312 124.881 503.671 128.063 507.886 130.314C512.118 132.565 516.73 133.691 521.724 133.691C529.07 133.691 534.656 131.474 538.481 127.039L538.481 128.918Q538.481 135.128 535.391 138.526Q535.12 138.823 534.825 139.1Q531.194 142.527 523.399 142.527C519.997 142.527 516.544 141.985 513.04 140.902C509.536 139.836 506.642 138.372 504.356 136.51L497.171 150.348C500.573 152.769 504.704 154.597 509.562 155.832C514.42 157.085 519.616 157.711 525.151 157.711Q541.173 157.711 549.704 149.865Q550.402 149.223 551.044 148.528Q558.235 140.733 558.235 126.303ZM305.213 80.2441L285.459 80.2441L285.459 136.611L305.213 136.611L305.213 80.2441ZM371.091 121.834L371.091 136.611L319.091 136.611L319.091 124.957L345.192 94.9199L319.827 94.9199L319.827 80.2441L370.05 80.2441L370.05 91.7969L343.948 121.834L371.091 121.834ZM403.589 80.2441L383.835 80.2441L383.835 136.611L403.589 136.611L403.589 80.2441ZM535.181 114.775C532.862 116.925 529.934 118 526.396 118C522.875 118 519.93 116.925 517.56 114.775C515.207 112.626 514.03 109.85 514.03 106.447C514.03 103.045 515.19 100.294 517.509 98.1953C519.828 96.0791 522.79 95.0215 526.396 95.0215C530.001 95.0215 532.946 96.0791 535.231 98.1953C537.534 100.294 538.685 103.045 538.685 106.447C538.685 109.85 537.517 112.626 535.181 114.775Z" fill="#1A1A1A" fill-opacity="1.000000" fill-rule="evenodd"/>
</svg>
