<svg width="621.000000" height="200.000000" viewBox="0 0 621 200" fill="none" xmlns="http://www.w3.org/2000/svg" xmlns:xlink="http://www.w3.org/1999/xlink">
	<desc>
			Created with Pixso.
	</desc>
	<defs/>
	<rect id="Vizing-白底" width="621.000000" height="200.000000" fill="#FFFFFF" fill-opacity="0"/>
	<path id="Vizing" d="M290.654 71.8906C292.872 73.8877 295.783 74.8867 299.389 74.8867Q303.86 74.8867 306.908 72.8037L306.908 72.8037Q307.547 72.3672 308.123 71.8398C310.341 69.792 311.449 67.2021 311.449 64.0703C311.449 61.0908 310.341 58.6533 308.123 56.7578C305.905 54.8447 302.994 53.8887 299.389 53.8887C295.783 53.8887 292.872 54.8955 290.654 56.9102C288.437 58.9072 287.328 61.4043 287.328 64.4004C287.328 67.3799 288.437 69.876 290.654 71.8906ZM389.03 71.8906C391.248 73.8877 394.159 74.8867 397.765 74.8867C401.37 74.8867 404.281 73.8711 406.499 71.8398C408.717 69.792 409.825 67.2021 409.825 64.0703C409.825 61.0908 408.717 58.6533 406.499 56.7578C404.281 54.8447 401.37 53.8887 397.765 53.8887C394.159 53.8887 391.248 54.8955 389.03 56.9102C386.812 58.9072 385.704 61.4043 385.704 64.4004C385.704 67.3799 386.812 69.876 389.03 71.8906ZM280.623 64.7051L249.418 137.5L229.131 137.5L198.053 64.7051L220.295 64.7051L240.049 112.135L260.234 64.7051L280.623 64.7051ZM461.154 80.1934C468.146 80.1934 473.773 82.2754 478.039 86.4395Q478.154 86.5518 478.267 86.665Q484.438 92.9111 484.438 105.254L484.438 137.5L464.684 137.5L464.684 108.479C464.684 100.794 461.595 96.9512 455.416 96.9512Q451.987 96.9512 449.474 98.4678Q448.264 99.1973 447.266 100.277C445.218 102.495 444.193 105.821 444.193 110.256L444.193 137.5L424.439 137.5L424.439 81.1328L443.254 81.1328L443.254 87.2773C445.472 84.9756 448.104 83.2236 451.15 82.0215C454.215 80.8027 457.549 80.1934 461.154 80.1934ZM562.288 127.191L562.288 81.1328L543.448 81.1328L543.448 87.9883Q542.102 86.1172 540.383 84.6953Q534.942 80.1934 525.776 80.1934C520.783 80.1934 516.171 81.3193 511.938 83.5703C507.724 85.8213 504.364 89.0127 501.858 93.1426Q501.259 94.1387 500.755 95.1816Q498.126 100.624 498.126 107.336Q498.126 114.552 501.07 120.245Q501.441 120.963 501.858 121.656C504.364 125.77 507.724 128.952 511.938 131.203C516.171 133.454 520.783 134.58 525.776 134.58C533.123 134.58 538.709 132.362 542.534 127.928L542.534 129.807Q542.534 136.017 539.443 139.415Q539.173 139.712 538.878 139.988Q535.247 143.416 527.452 143.416C524.05 143.416 520.597 142.874 517.093 141.791C513.589 140.725 510.694 139.261 508.409 137.398L501.224 151.236C504.626 153.657 508.757 155.485 513.614 156.721C518.473 157.974 523.669 158.6 529.204 158.6Q545.226 158.6 553.757 150.754Q554.455 150.111 555.097 149.417Q562.288 141.622 562.288 127.191ZM309.266 81.1328L289.512 81.1328L289.512 137.5L309.266 137.5L309.266 81.1328ZM375.144 122.723L375.144 137.5L323.144 137.5L323.144 125.846L349.245 95.8086L323.88 95.8086L323.88 81.1328L374.103 81.1328L374.103 92.6855L348.001 122.723L375.144 122.723ZM407.642 81.1328L387.888 81.1328L387.888 137.5L407.642 137.5L407.642 81.1328ZM539.233 115.664C536.915 117.813 533.986 118.889 530.448 118.889C526.928 118.889 523.982 117.813 521.612 115.664C519.26 113.515 518.083 110.738 518.083 107.336C518.083 103.934 519.243 101.183 521.562 99.084C523.881 96.9678 526.843 95.9102 530.448 95.9102C534.054 95.9102 536.999 96.9678 539.284 99.084C541.587 101.183 542.737 103.934 542.737 107.336Q542.737 110.432 541.448 112.836Q540.612 114.396 539.233 115.664Z" fill="#1A1A1A" fill-opacity="1.000000" fill-rule="evenodd"/>
	<path id="减去顶层" d="M154.402 74.6846C144.846 54.209 124.064 40 100 40C66.8926 40 40 66.8926 40 100C40 109.26 42.1035 118.034 45.8594 125.869C51.1738 121.381 57.9834 116.531 65.9287 111.601C63.3672 104.099 63.252 95.707 66.1797 87.6895C68.9707 80.0059 74.376 73.2246 82.0049 68.8301C89.082 64.7383 97.5811 63.0186 106.251 64.5557C114.303 65.9697 121.919 70.1152 127.571 76.8652C128.705 78.2148 129.742 79.6494 130.671 81.1562C139.442 78.1982 147.49 76.0117 154.402 74.6846ZM159.99 101.088C151.985 107.013 141.834 113.342 130.246 119.521C129.44 120.765 128.549 121.972 127.57 123.136C122.32 129.401 114.922 133.924 106.249 135.445C102.651 136.082 98.9473 136.176 95.2715 135.691C82.9404 140.559 71.5 144.169 61.8887 146.324C72.2568 154.866 85.5352 160 100 160C132.743 160 159.409 133.694 159.99 101.088Z" clip-rule="evenodd" fill="#1A1A1A" fill-opacity="1.000000" fill-rule="evenodd"/>
	<path id="减去顶层" d="M111.994 70.499C109.232 70.499 106.994 72.7373 106.994 75.499C106.994 75.6914 107.005 75.8809 107.026 76.0674C106.982 76.1064 106.939 76.1455 106.896 76.1846L106.895 76.1855L106.895 76.1855C106.462 76.5801 106.048 76.9951 105.653 77.4316C105.315 77.8066 104.994 78.1943 104.689 78.5947C104.292 79.1182 103.923 79.6621 103.583 80.2285C103.308 80.6895 103.053 81.1592 102.819 81.6406C102.551 82.1953 102.311 82.7627 102.099 83.3447C101.887 83.9268 101.706 84.5166 101.556 85.1143C101.425 85.6328 101.317 86.1562 101.233 86.6865C101.129 87.3389 101.062 87.9932 101.03 88.6484C101.006 89.1514 101.003 89.6553 101.021 90.1602C101.042 90.748 101.093 91.332 101.171 91.9131C101.213 92.2227 101.263 92.5322 101.321 92.8398C102.588 92.2637 103.849 91.6982 105.104 91.1445C105.061 90.7715 105.032 90.3945 105.019 90.0146C105.005 89.6406 105.007 89.2656 105.023 88.8926C105.047 88.3652 105.1 87.8398 105.184 87.3154C105.248 86.9111 105.329 86.5117 105.428 86.1172C105.546 85.6426 105.689 85.1748 105.857 84.7129C106.025 84.251 106.217 83.8008 106.431 83.3613C106.609 82.9951 106.804 82.6367 107.014 82.2861C107.287 81.8311 107.584 81.3945 107.904 80.9756C108.132 80.6787 108.371 80.3906 108.623 80.1123C108.784 79.9336 108.949 79.7588 109.119 79.5898C109.932 80.1631 110.924 80.499 111.994 80.499C114.756 80.499 116.994 78.2607 116.994 75.499C116.994 72.7373 114.756 70.499 111.994 70.499ZM96.6855 94.9902C95.4258 95.5859 94.1787 96.1846 92.9434 96.7871C92.6904 96.5205 92.4258 96.2627 92.1504 96.0137C91.8721 95.7617 91.585 95.5225 91.2881 95.2959C90.8691 94.9746 90.4316 94.6777 89.9766 94.4043C89.626 94.1943 89.2676 94 88.9014 93.8213C88.4619 93.6074 88.0117 93.416 87.5498 93.248C87.0879 93.0801 86.6201 92.9365 86.1455 92.8184C85.751 92.7197 85.3516 92.6387 84.9473 92.5742C84.4238 92.4902 83.8975 92.4375 83.3711 92.4141C82.9971 92.3975 82.623 92.3955 82.248 92.4092C81.8262 92.4248 81.4082 92.458 80.9941 92.5107C80.9883 95.2666 78.752 97.499 75.9941 97.499C73.2324 97.499 70.9941 95.2607 70.9941 92.499C70.9941 89.7373 73.2324 87.499 75.9941 87.499C77.2559 87.499 78.4092 87.9668 79.2891 88.7383C79.6406 88.6689 79.9941 88.6094 80.3496 88.5615C80.9297 88.4834 81.5146 88.4326 82.1025 88.4121C82.6074 88.3936 83.1113 88.3965 83.6143 88.4209C84.2695 88.4521 84.9238 88.5195 85.5762 88.624C86.1064 88.708 86.6299 88.8154 87.1484 88.9463C87.7461 89.0967 88.3359 89.2773 88.918 89.4893C89.5 89.7012 90.0684 89.9414 90.6221 90.21C91.1035 90.4434 91.5742 90.6982 92.0342 90.9736C92.6006 91.3135 93.1445 91.6826 93.668 92.0801C94.0684 92.3848 94.4561 92.7061 94.8311 93.0439C95.2676 93.4385 95.6836 93.8525 96.0771 94.2861C96.2861 94.5156 96.4883 94.75 96.6855 94.9902Z" clip-rule="evenodd" fill="#1A1A1A" fill-opacity="1.000000" fill-rule="evenodd"/>
	<path id="矢量 15" d="M33.6758 150.522C29.3691 141.289 58.3398 118.666 98.3838 99.9932C138.427 81.3213 174.378 73.6699 178.685 82.9033C182.99 92.1377 154.021 114.762 113.978 133.434C73.9336 152.106 37.9814 159.757 33.6758 150.522Z" fill="#BB2C2C" fill-opacity="1.000000" fill-rule="evenodd"/>
</svg>
